# xmcd
#
# Track frame offsets:
#	150
#	16688
#	32904
#	48018
#	64571
#	84551
#	103780
#	120387
#	133431
#	147380
#	162791
#	178256
#	196320
#	211890
#	228731
#	245314
#	262915
#	284177
#	301997
#	319779
#	335912
#
# Disc length: 4703 seconds
#
# Revision: 0
# Processed by: cddbd v1.5.2PL0 Copyright (c) Steve Scherf et al.
# Submitted via: EZCDAudioConverter 1.3.1.1
#
DISCID=36125d15
DTITLE=Pop Cocktail vol.5
DYEAR=2003
DGENRE=
TTITLE0=Girls Aloud - Sound Of The Underground
TTITLE1=Rednex - Cotton Eye Joe (Version 2003)
TTITLE2=Cheeky Girls - Cheeky Song
TTITLE3=Blue feat. Elton John - Sorry Seems To Be The Hardest
TTITLE4=Eminem - Lose Yourself
TTITLE5=Britney Spears - All I Want For Christmas Is You
TTITLE6=Gad-Jo - Besame Mucho
TTITLE7=Shania Twain - Up!
TTITLE8=Dj Mendez - Don't Quit Your Day Job
TTITLE9=Snow - Legal
TTITLE10=No Angels - All Cried Out
TTITLE11=Christina Aguilera - Dirtty
TTITLE12=Holly Valance - Kiss Kiss
TTITLE13=Roxette - A This About You
TTITLE14=S Club - Alive
TTITLE15=Jeanette - Rock My Life
TTITLE16=Sarah Connor - Skin On Skin
TTITLE17=Gregorian - Voyage Voyage
TTITLE18=Ms. Dynamite - Put Him Out
TTITLE19=Craig David - What's Your Flava
TTITLE20=Crazy Town - Change
EXTD=
EXTT0=
EXTT1=
EXTT2=
EXTT3=
EXTT4=
EXTT5=
EXTT6=
EXTT7=
EXTT8=
EXTT9=
EXTT10=
EXTT11=
EXTT12=
EXTT13=
EXTT14=
EXTT15=
EXTT16=
EXTT17=
EXTT18=
EXTT19=
EXTT20=
PLAYORDER=
